<svg version="1.1" xmlns="http://www.w3.org/2000/svg" xmlns:xlink="http://www.w3.org/1999/xlink" x="0px" y="0px"
	 width="370px" height="174px" viewBox="0 0 370 174" style="enable-background:new 0 0 370 174;" xml:space="preserve">
<style type="text/css">
	.st0{fill:#FFFFFF;}
</style>
<path class="st0" d="M370,153.4v-33.1V53.7V20.6C370,9.3,360.7,0,349.4,0H20.6C9.3,0,0,9.3,0,20.6v132.7C0,164.7,9.3,174,20.6,174
	h328.7C360.7,174,370,164.7,370,153.4z M23.2,164.4c-7.6,0-13.8-6.2-13.8-13.8V23.4c0-7.6,6.2-13.8,13.8-13.8h323.2
	c7.6,0,13.8,6.2,13.8,13.8v25.4h-1c-5.7,0-10.3,4.7-10.3,10.3v55.7c0,5.7,4.7,10.3,10.3,10.3h1v25.4c0,7.6-6.2,13.8-13.8,13.8H23.2z
	"/>
</svg>