<svg version="1.1" xmlns="http://www.w3.org/2000/svg" xmlns:xlink="http://www.w3.org/1999/xlink" x="0px" y="0px"
     width="253px" height="538px" viewBox="0 0 253 538" style="enable-background:new 0 0 253 538;" xml:space="preserve">
<style type="text/css">
	.st0{fill:#FFFFFF;}
</style>
    <path class="st0" d="M223,0h-48.1H78.1H30C13.5,0,0,13.5,0,30v478c0,16.5,13.5,30,30,30h193c16.5,0,30-13.5,30-30V30
	C253,13.5,239.5,0,223,0z M239,504.3c0,11-9,20-20,20H34c-11,0-20-9-20-20v-470c0-11,9-20,20-20h37v1.5c0,8.3,6.8,15,15,15h81
	c8.3,0,15-6.8,15-15v-1.5h37c11,0,20,9,20,20V504.3z"/>
</svg>
